# xmcd CD database file
#
# Track frame offsets:
#	150
#	13042
#	23510
#	41747
#	53914
#	68343
#	82929
#	90734
#	102722
#	115375
#	130730
#
# Disc length: 1951 seconds
#
# Revision: 0
# Processed by: cddbd v1.5.1PL2 Copyright (c) Steve Scherf et al.
# Submitted via: CDex 1.40Beta9
#
DISCID=85079d0b
DTITLE=Boxcar Willie - Truck Drivin' Man
DYEAR=2004
DGENRE=Country
TTITLE0=Truck Drivin' Man
TTITLE1=Thank You Old Flag Of Mine
TTITLE2=Convoy
TTITLE3=How Fast Them Trucks Will Go
TTITLE4=Battle Of New Orleans
TTITLE5=Freightline Fever
TTITLE6=America
TTITLE7=Trucker's Prayer
TTITLE8=North To Alaska
TTITLE9=Play The Star Spangled
TTITLE10=My Old Kentucky Home
EXTD=YEAR: 2004 ID3G: 2
EXTT0=
EXTT1=
EXTT2=
EXTT3=
EXTT4=
EXTT5=
EXTT6=
EXTT7=
EXTT8=
EXTT9=
EXTT10=
PLAYORDER=
